<?xml version="1.0" encoding="UTF-8" standalone="no"?>
<!-- Created with Inkscape (http://www.inkscape.org/) -->
<svg xmlns:dc="http://purl.org/dc/elements/1.1/" xmlns:cc="http://creativecommons.org/ns#" xmlns:rdf="http://www.w3.org/1999/02/22-rdf-syntax-ns#" xmlns:svg="http://www.w3.org/2000/svg" xmlns="http://www.w3.org/2000/svg" xmlns:sodipodi="http://sodipodi.sourceforge.net/DTD/sodipodi-0.dtd" xmlns:inkscape="http://www.inkscape.org/namespaces/inkscape" width="935.80444" height="715.35425" id="svg2" sodipodi:version="0.32" inkscape:version="0.92.2 (5c3e80d, 2017-08-06)" sodipodi:docname="ABC_Model.svg" version="1.0">
  <defs id="defs4"/>
  <sodipodi:namedview id="base" pagecolor="#ffffff" bordercolor="#666666" borderopacity="1.0" inkscape:pageopacity="0.0" inkscape:pageshadow="2" inkscape:zoom="0.7" inkscape:cx="619.42461" inkscape:cy="263.15711" inkscape:document-units="px" inkscape:current-layer="layer1" showgrid="true" inkscape:window-width="1344" inkscape:window-height="986" inkscape:window-x="351" inkscape:window-y="53" height="817.36px" width="744.09448px" inkscape:window-maximized="0" fit-margin-top="0" fit-margin-left="0" fit-margin-right="0" fit-margin-bottom="0"/>
  <metadata id="metadata7">
    <rdf:RDF>
      <cc:Work rdf:about="">
        <dc:format>image/svg+xml</dc:format>
        <dc:type rdf:resource="http://purl.org/dc/dcmitype/StillImage"/>
      </cc:Work>
    </rdf:RDF>
  </metadata>
  <g inkscape:label="Capa 1" inkscape:groupmode="layer" id="layer1" transform="translate(6.3122337,3.8987514)">
    <rect style="fill:#ffaf00;fill-opacity:1;fill-rule:nonzero;stroke:#080000;stroke-width:2.61152363;stroke-linecap:butt;stroke-linejoin:round;stroke-miterlimit:4;stroke-opacity:1;stroke-dasharray:none" id="rect1872" width="56.867138" height="278.83643" x="13.703407" y="132.56"/>
    <rect style="fill:#008a48;fill-opacity:1;fill-rule:nonzero;stroke:#080000;stroke-width:2.61152363;stroke-linecap:butt;stroke-linejoin:round;stroke-miterlimit:4;stroke-opacity:1;stroke-dasharray:none" id="rect1874" width="56.867138" height="278.83643" x="13.139534" y="425.31329"/>
    <rect style="fill:#e7500b;fill-opacity:1;fill-rule:nonzero;stroke:#080000;stroke-width:2.83005834;stroke-linecap:butt;stroke-linejoin:round;stroke-miterlimit:4;stroke-opacity:1;stroke-dasharray:none" id="rect1878" width="56.867138" height="327.45557" x="113.52216" y="238.4101"/>
    <switch style="font-style:normal;font-variant:normal;font-weight:normal;font-stretch:normal;line-height:0%;font-family:'Bitstream Vera Sans';text-align:start;writing-mode:lr-tb;text-anchor:start;fill:#e6edf3;fill-opacity:1;stroke:none" id="switch12">
      <text xml:space="preserve" style="font-style:normal;font-variant:normal;font-weight:normal;font-stretch:normal;line-height:0%;font-family:'Bitstream Vera Sans';text-align:start;writing-mode:lr-tb;text-anchor:start;fill:#e6edf3;fill-opacity:1;stroke:none" x="25.384825" y="293.38062" id="text1888-eu" transform="scale(1.0265052,0.97417919)" systemLanguage="eu"><tspan sodipodi:role="line" id="tspan1890-eu" x="25.384825" y="293.38062" style="font-size:39.17284775px;line-height:1.25">C</tspan></text>
      
    <text xml:space="preserve" style="font-style:normal;font-variant:normal;font-weight:normal;font-stretch:normal;line-height:0%;font-family:'Bitstream Vera Sans';text-align:start;writing-mode:lr-tb;text-anchor:start;fill:#e6edf3;fill-opacity:1;stroke:none" x="25.384825" y="293.38062" id="text1888-ca" transform="scale(1.0265052,0.97417919)" systemLanguage="ca"><tspan sodipodi:role="line" id="tspan1890-ca" x="25.384825" y="293.38062" style="font-size:39.17284775px;line-height:1.25">C</tspan></text><text xml:space="preserve" style="font-style:normal;font-variant:normal;font-weight:normal;font-stretch:normal;line-height:0%;font-family:'Bitstream Vera Sans';text-align:start;writing-mode:lr-tb;text-anchor:start;fill:#e6edf3;fill-opacity:1;stroke:none" x="25.384825" y="293.38062" id="text1888" transform="scale(1.0265052,0.97417919)"><tspan sodipodi:role="line" id="tspan1890" x="25.384825" y="293.38062" style="font-size:39.17284775px;line-height:1.25">C</tspan></text></switch>
    <switch style="font-style:normal;font-variant:normal;font-weight:normal;font-stretch:normal;line-height:0%;font-family:'Bitstream Vera Sans';text-align:start;writing-mode:lr-tb;text-anchor:start;fill:#e6edf3;fill-opacity:1;stroke:none" id="switch18">
      <text xml:space="preserve" style="font-style:normal;font-variant:normal;font-weight:normal;font-stretch:normal;line-height:0%;font-family:'Bitstream Vera Sans';text-align:start;writing-mode:lr-tb;text-anchor:start;fill:#e6edf3;fill-opacity:1;stroke:none" x="27.796537" y="600.52716" id="text1896-eu" transform="scale(1.0265052,0.97417919)" systemLanguage="eu"><tspan sodipodi:role="line" id="tspan1898-eu" x="27.796537" y="600.52716" style="font-size:39.17284775px;line-height:1.25">A</tspan></text>
      
    <text xml:space="preserve" style="font-style:normal;font-variant:normal;font-weight:normal;font-stretch:normal;line-height:0%;font-family:'Bitstream Vera Sans';text-align:start;writing-mode:lr-tb;text-anchor:start;fill:#e6edf3;fill-opacity:1;stroke:none" x="27.796537" y="600.52716" id="text1896-ca" transform="scale(1.0265052,0.97417919)" systemLanguage="ca"><tspan sodipodi:role="line" id="tspan1898-ca" x="27.796537" y="600.52716" style="font-size:39.17284775px;line-height:1.25">A</tspan></text><text xml:space="preserve" style="font-style:normal;font-variant:normal;font-weight:normal;font-stretch:normal;line-height:0%;font-family:'Bitstream Vera Sans';text-align:start;writing-mode:lr-tb;text-anchor:start;fill:#e6edf3;fill-opacity:1;stroke:none" x="27.796537" y="600.52716" id="text1896" transform="scale(1.0265052,0.97417919)"><tspan sodipodi:role="line" id="tspan1898" x="27.796537" y="600.52716" style="font-size:39.17284775px;line-height:1.25">A</tspan></text></switch>
    <switch style="font-style:normal;font-variant:normal;font-weight:normal;font-stretch:normal;line-height:0%;font-family:'Bitstream Vera Sans';text-align:start;writing-mode:lr-tb;text-anchor:start;fill:#e6edf3;fill-opacity:1;stroke:none" id="switch24">
      <text xml:space="preserve" style="font-style:normal;font-variant:normal;font-weight:normal;font-stretch:normal;line-height:0%;font-family:'Bitstream Vera Sans';text-align:start;writing-mode:lr-tb;text-anchor:start;fill:#e6edf3;fill-opacity:1;stroke:none" x="124.61005" y="426.68866" id="text1900-eu" transform="scale(1.0265052,0.97417919)" systemLanguage="eu"><tspan sodipodi:role="line" id="tspan1902-eu" x="124.61005" y="426.68866" style="font-size:39.17284775px;line-height:1.25">B</tspan></text>
      
    <text xml:space="preserve" style="font-style:normal;font-variant:normal;font-weight:normal;font-stretch:normal;line-height:0%;font-family:'Bitstream Vera Sans';text-align:start;writing-mode:lr-tb;text-anchor:start;fill:#e6edf3;fill-opacity:1;stroke:none" x="124.61005" y="426.68866" id="text1900-ca" transform="scale(1.0265052,0.97417919)" systemLanguage="ca"><tspan sodipodi:role="line" id="tspan1902-ca" x="124.61005" y="426.68866" style="font-size:39.17284775px;line-height:1.25">B</tspan></text><text xml:space="preserve" style="font-style:normal;font-variant:normal;font-weight:normal;font-stretch:normal;line-height:0%;font-family:'Bitstream Vera Sans';text-align:start;writing-mode:lr-tb;text-anchor:start;fill:#e6edf3;fill-opacity:1;stroke:none" x="124.61005" y="426.68866" id="text1900" transform="scale(1.0265052,0.97417919)"><tspan sodipodi:role="line" id="tspan1902" x="124.61005" y="426.68866" style="font-size:39.17284775px;line-height:1.25">B</tspan></text></switch>
    <switch style="font-style:normal;font-variant:normal;font-weight:normal;font-stretch:normal;line-height:0%;font-family:'Bitstream Vera Sans';text-align:start;writing-mode:lr-tb;text-anchor:start;fill:#e6edf3;fill-opacity:1;stroke:none" id="switch48">
      <text xml:space="preserve" style="font-style:normal;font-variant:normal;font-weight:normal;font-stretch:normal;line-height:0%;font-family:'Bitstream Vera Sans';text-align:start;writing-mode:lr-tb;text-anchor:start;fill:#e6edf3;fill-opacity:1;stroke:none" x="234.99625" y="74.674492" id="text1924-eu" transform="scale(1.0265052,0.97417919)" systemLanguage="eu"><tspan sodipodi:role="line" x="234.99625" y="74.674492" style="font-size:32px;line-height:1.25" id="tspan3831-eu">(Bertiziloa)</tspan><tspan sodipodi:role="line" x="234.99625" y="114.67449" style="font-size:32px;line-height:1.25" id="tspan3837-eu"> </tspan></text>
      
    <text xml:space="preserve" style="font-style:normal;font-variant:normal;font-weight:normal;font-stretch:normal;line-height:0%;font-family:'Bitstream Vera Sans';text-align:start;writing-mode:lr-tb;text-anchor:start;fill:#e6edf3;fill-opacity:1;stroke:none" x="234.99625" y="74.674492" id="text1924-ca" transform="scale(1.0265052,0.97417919)" systemLanguage="ca"><tspan sodipodi:role="line" x="234.99625" y="74.674492" style="font-size:32px;line-height:1.25" id="tspan3831-ca">(Verticil)</tspan><tspan sodipodi:role="line" x="234.99625" y="114.67449" style="font-size:32px;line-height:1.25" id="tspan3837-ca"> </tspan></text><text xml:space="preserve" style="font-style:normal;font-variant:normal;font-weight:normal;font-stretch:normal;line-height:0%;font-family:'Bitstream Vera Sans';text-align:start;writing-mode:lr-tb;text-anchor:start;fill:#e6edf3;fill-opacity:1;stroke:none" x="234.99625" y="74.674492" id="text1924" transform="scale(1.0265052,0.97417919)"><tspan sodipodi:role="line" x="234.99625" y="74.674492" style="font-size:32px;line-height:1.25" id="tspan3831">Whorl</tspan><tspan sodipodi:role="line" x="234.99625" y="114.67449" style="font-size:32px;line-height:1.25" id="tspan3837"> </tspan></text></switch>
    <switch style="font-style:normal;font-variant:normal;font-weight:normal;font-stretch:normal;line-height:0%;font-family:'Bitstream Vera Sans';text-align:start;writing-mode:lr-tb;text-anchor:start;fill:#e6edf3;fill-opacity:1;stroke:none" id="switch54">
      <text xml:space="preserve" style="font-style:normal;font-variant:normal;font-weight:normal;font-stretch:normal;line-height:0%;font-family:'Bitstream Vera Sans';text-align:start;writing-mode:lr-tb;text-anchor:start;fill:#e6edf3;fill-opacity:1;stroke:none" x="251.5397" y="161.96281" id="text1928-eu" transform="scale(1.0265052,0.97417919)" systemLanguage="eu"><tspan sodipodi:role="line" id="tspan1930-eu" x="251.5397" y="161.96281" style="font-size:23.50370979px;line-height:1.25">Karpeloa</tspan></text>
      
    <text xml:space="preserve" style="font-style:normal;font-variant:normal;font-weight:normal;font-stretch:normal;line-height:0%;font-family:'Bitstream Vera Sans';text-align:start;writing-mode:lr-tb;text-anchor:start;fill:#e6edf3;fill-opacity:1;stroke:none" x="251.5397" y="161.96281" id="text1928-ca" transform="scale(1.0265052,0.97417919)" systemLanguage="ca"><tspan sodipodi:role="line" id="tspan1930-ca" x="251.5397" y="161.96281" style="font-size:23.50370979px;line-height:1.25">Carpels</tspan></text><text xml:space="preserve" style="font-style:normal;font-variant:normal;font-weight:normal;font-stretch:normal;line-height:0%;font-family:'Bitstream Vera Sans';text-align:start;writing-mode:lr-tb;text-anchor:start;fill:#e6edf3;fill-opacity:1;stroke:none" x="251.5397" y="161.96281" id="text1928" transform="scale(1.0265052,0.97417919)"><tspan sodipodi:role="line" id="tspan1930" x="251.5397" y="161.96281" style="font-size:23.50370979px;line-height:1.25">Carpels</tspan></text></switch>
    <switch style="font-style:normal;font-variant:normal;font-weight:normal;font-stretch:normal;line-height:0%;font-family:'Bitstream Vera Sans';text-align:start;writing-mode:lr-tb;text-anchor:start;fill:#e6edf3;fill-opacity:1;stroke:none" id="switch60">
      <text xml:space="preserve" style="font-style:normal;font-variant:normal;font-weight:normal;font-stretch:normal;line-height:0%;font-family:'Bitstream Vera Sans';text-align:start;writing-mode:lr-tb;text-anchor:start;fill:#e6edf3;fill-opacity:1;stroke:none" x="251.65448" y="296.26251" id="text1932-eu" transform="scale(1.0265052,0.97417919)" systemLanguage="eu"><tspan sodipodi:role="line" id="tspan1934-eu" x="251.65448" y="296.26251" style="font-size:23.50370979px;line-height:1.25">Lorezilak</tspan></text>
      
    <text xml:space="preserve" style="font-style:normal;font-variant:normal;font-weight:normal;font-stretch:normal;line-height:0%;font-family:'Bitstream Vera Sans';text-align:start;writing-mode:lr-tb;text-anchor:start;fill:#e6edf3;fill-opacity:1;stroke:none" x="251.65448" y="296.26251" id="text1932-ca" transform="scale(1.0265052,0.97417919)" systemLanguage="ca"><tspan sodipodi:role="line" id="tspan1934-ca" x="251.65448" y="296.26251" style="font-size:23.50370979px;line-height:1.25">Estams</tspan></text><text xml:space="preserve" style="font-style:normal;font-variant:normal;font-weight:normal;font-stretch:normal;line-height:0%;font-family:'Bitstream Vera Sans';text-align:start;writing-mode:lr-tb;text-anchor:start;fill:#e6edf3;fill-opacity:1;stroke:none" x="251.65448" y="296.26251" id="text1932" transform="scale(1.0265052,0.97417919)"><tspan sodipodi:role="line" id="tspan1934" x="251.65448" y="296.26251" style="font-size:23.50370979px;line-height:1.25">Stamens</tspan></text></switch>
    <switch style="font-style:normal;font-variant:normal;font-weight:normal;font-stretch:normal;line-height:0%;font-family:'Bitstream Vera Sans';text-align:start;writing-mode:lr-tb;text-anchor:start;fill:#e6edf3;fill-opacity:1;stroke:none" id="switch66">
      <text xml:space="preserve" style="font-style:normal;font-variant:normal;font-weight:normal;font-stretch:normal;line-height:0%;font-family:'Bitstream Vera Sans';text-align:start;writing-mode:lr-tb;text-anchor:start;fill:#e6edf3;fill-opacity:1;stroke:none" x="250.89703" y="535.51129" id="text1936-eu" transform="scale(1.0265052,0.97417919)" systemLanguage="eu"><tspan sodipodi:role="line" id="tspan1938-eu" x="250.89703" y="535.51129" style="font-size:23.50370979px;line-height:1.25">Petaloa</tspan></text>
      
    <text xml:space="preserve" style="font-style:normal;font-variant:normal;font-weight:normal;font-stretch:normal;line-height:0%;font-family:'Bitstream Vera Sans';text-align:start;writing-mode:lr-tb;text-anchor:start;fill:#e6edf3;fill-opacity:1;stroke:none" x="250.89703" y="535.51129" id="text1936-ca" transform="scale(1.0265052,0.97417919)" systemLanguage="ca"><tspan sodipodi:role="line" id="tspan1938-ca" x="250.89703" y="535.51129" style="font-size:23.50370979px;line-height:1.25">Pètals</tspan></text><text xml:space="preserve" style="font-style:normal;font-variant:normal;font-weight:normal;font-stretch:normal;line-height:0%;font-family:'Bitstream Vera Sans';text-align:start;writing-mode:lr-tb;text-anchor:start;fill:#e6edf3;fill-opacity:1;stroke:none" x="250.89703" y="535.51129" id="text1936" transform="scale(1.0265052,0.97417919)"><tspan sodipodi:role="line" id="tspan1938" x="250.89703" y="535.51129" style="font-size:23.50370979px;line-height:1.25">Petals</tspan></text></switch>
    <switch style="font-style:normal;font-variant:normal;font-weight:normal;font-stretch:normal;line-height:0%;font-family:'Bitstream Vera Sans';text-align:start;writing-mode:lr-tb;text-anchor:start;fill:#e6edf3;fill-opacity:1;stroke:none" id="switch72">
      <text xml:space="preserve" style="font-style:normal;font-variant:normal;font-weight:normal;font-stretch:normal;line-height:0%;font-family:'Bitstream Vera Sans';text-align:start;writing-mode:lr-tb;text-anchor:start;fill:#e6edf3;fill-opacity:1;stroke:none" x="249.70612" y="657.04303" id="text1942-eu" transform="scale(1.0265052,0.97417919)" systemLanguage="eu"><tspan sodipodi:role="line" id="tspan1944-eu" x="249.70612" y="657.04303" style="font-size:23.50370979px;line-height:1.25">Sepaloa</tspan></text>
      
    <text xml:space="preserve" style="font-style:normal;font-variant:normal;font-weight:normal;font-stretch:normal;line-height:0%;font-family:'Bitstream Vera Sans';text-align:start;writing-mode:lr-tb;text-anchor:start;fill:#e6edf3;fill-opacity:1;stroke:none" x="249.70612" y="657.04303" id="text1942-ca" transform="scale(1.0265052,0.97417919)" systemLanguage="ca"><tspan sodipodi:role="line" id="tspan1944-ca" x="249.70612" y="657.04303" style="font-size:23.50370979px;line-height:1.25">Sèpals</tspan></text><text xml:space="preserve" style="font-style:normal;font-variant:normal;font-weight:normal;font-stretch:normal;line-height:0%;font-family:'Bitstream Vera Sans';text-align:start;writing-mode:lr-tb;text-anchor:start;fill:#e6edf3;fill-opacity:1;stroke:none" x="249.70612" y="657.04303" id="text1942" transform="scale(1.0265052,0.97417919)"><tspan sodipodi:role="line" id="tspan1944" x="249.70612" y="657.04303" style="font-size:23.50370979px;line-height:1.25">Sepals</tspan></text></switch>
    <switch style="font-style:normal;font-variant:normal;font-weight:normal;font-stretch:normal;line-height:0%;font-family:'Bitstream Vera Sans';text-align:start;writing-mode:lr-tb;text-anchor:start;fill:#e6edf3;fill-opacity:1;stroke:none" id="switch76">
      
    <text xml:space="preserve" style="font-style:normal;font-variant:normal;font-weight:normal;font-stretch:normal;line-height:0%;font-family:'Bitstream Vera Sans';text-align:start;writing-mode:lr-tb;text-anchor:start;fill:#e6edf3;fill-opacity:1;stroke:none" x="229.70558" y="195.15634" id="text1948-ca" transform="scale(1.0265052,0.97417919)" systemLanguage="ca"><tspan sodipodi:role="line" id="tspan1950-ca" x="229.70558" y="195.15634" style="font-size:23.50370979px;line-height:1.25">(Gineceu)</tspan></text><text xml:space="preserve" style="font-style:normal;font-variant:normal;font-weight:normal;font-stretch:normal;line-height:0%;font-family:'Bitstream Vera Sans';text-align:start;writing-mode:lr-tb;text-anchor:start;fill:#e6edf3;fill-opacity:1;stroke:none" x="229.70558" y="195.15634" id="text1948" transform="scale(1.0265052,0.97417919)"><tspan sodipodi:role="line" id="tspan1950" x="229.70558" y="195.15634" style="font-size:23.50370979px;line-height:1.25"> </tspan></text></switch>
    <switch style="font-style:normal;font-variant:normal;font-weight:normal;font-stretch:normal;line-height:0%;font-family:'Bitstream Vera Sans';text-align:start;writing-mode:lr-tb;text-anchor:start;fill:#e6edf3;fill-opacity:1;stroke:none" id="switch80">
      
    <text xml:space="preserve" style="font-style:normal;font-variant:normal;font-weight:normal;font-stretch:normal;line-height:0%;font-family:'Bitstream Vera Sans';text-align:start;writing-mode:lr-tb;text-anchor:start;fill:#e6edf3;fill-opacity:1;stroke:none" x="241.18716" y="568.2265" id="text1958-ca" transform="scale(1.0265052,0.97417919)" systemLanguage="ca"><tspan sodipodi:role="line" id="tspan1960-ca" x="241.18716" y="568.2265" style="font-size:23.50370979px;line-height:1.25">(Corol·la)</tspan></text><text xml:space="preserve" style="font-style:normal;font-variant:normal;font-weight:normal;font-stretch:normal;line-height:0%;font-family:'Bitstream Vera Sans';text-align:start;writing-mode:lr-tb;text-anchor:start;fill:#e6edf3;fill-opacity:1;stroke:none" x="241.18716" y="568.2265" id="text1958" transform="scale(1.0265052,0.97417919)"><tspan sodipodi:role="line" id="tspan1960" x="241.18716" y="568.2265" style="font-size:23.50370979px;line-height:1.25"> </tspan></text></switch>
    <switch style="font-style:normal;font-variant:normal;font-weight:normal;font-stretch:normal;line-height:0%;font-family:'Bitstream Vera Sans';text-align:start;writing-mode:lr-tb;text-anchor:start;fill:#e6edf3;fill-opacity:1;stroke:none" id="switch84">
      
    <text xml:space="preserve" style="font-style:normal;font-variant:normal;font-weight:normal;font-stretch:normal;line-height:0%;font-family:'Bitstream Vera Sans';text-align:start;writing-mode:lr-tb;text-anchor:start;fill:#e6edf3;fill-opacity:1;stroke:none" x="247.11136" y="687.81299" id="text1962-ca" transform="scale(1.0265052,0.97417919)" systemLanguage="ca"><tspan sodipodi:role="line" id="tspan1964-ca" x="247.11136" y="687.81299" style="font-size:23.50370979px;line-height:1.25">(Calze)</tspan></text><text xml:space="preserve" style="font-style:normal;font-variant:normal;font-weight:normal;font-stretch:normal;line-height:0%;font-family:'Bitstream Vera Sans';text-align:start;writing-mode:lr-tb;text-anchor:start;fill:#e6edf3;fill-opacity:1;stroke:none" x="247.11136" y="687.81299" id="text1962" transform="scale(1.0265052,0.97417919)"><tspan sodipodi:role="line" id="tspan1964" x="247.11136" y="687.81299" style="font-size:23.50370979px;line-height:1.25"> </tspan></text></switch>
    <path style="fill:#c8b7b7;fill-opacity:0.75;fill-rule:evenodd;stroke:#000000;stroke-width:1;stroke-linecap:butt;stroke-linejoin:miter;stroke-miterlimit:4;stroke-opacity:1;stroke-dasharray:none" d="m 182.61237,512.70317 c 48.51962,0 48.51962,0 48.51962,0 l 0,-5.45162 14.29594,8.17743 -14.29594,4.99733 0,-4.99733 -48.51962,0.4543 0,-3.18011 z" id="path1982" inkscape:connector-curvature="0"/>
    <path style="fill:#c8b7b7;fill-opacity:0.75;fill-rule:evenodd;stroke:#000000;stroke-width:1;stroke-linecap:butt;stroke-linejoin:miter;stroke-miterlimit:4;stroke-opacity:1;stroke-dasharray:none" d="m 93.306868,632.926 c 107.533172,0 107.533172,0 107.533172,0 l 0,-5.45162 31.68386,8.17744 -31.68386,4.99732 0,-4.99732 -107.533172,0.4543 0,-3.18012 z" id="path1984" inkscape:connector-curvature="0"/>
    <path style="fill:#c8b7b7;fill-opacity:0.75;fill-rule:evenodd;stroke:#000000;stroke-width:1;stroke-linecap:butt;stroke-linejoin:miter;stroke-miterlimit:4;stroke-opacity:1;stroke-dasharray:none" d="m 371.50553,281.22583 c 102.47389,0 102.47389,0 102.47389,0 l 0,-5.45162 30.19317,8.17744 -30.19317,4.99732 0,-4.99732 -102.47389,0.4543 0,-3.18012 z" id="path1980-7" inkscape:connector-curvature="0"/>
    <switch style="font-style:normal;font-variant:normal;font-weight:normal;font-stretch:normal;line-height:0%;font-family:'Bitstream Vera Sans';text-align:start;writing-mode:lr-tb;text-anchor:start;fill:#e6edf3;fill-opacity:1;stroke:none" id="switch91">
      
    <text xml:space="preserve" style="font-style:normal;font-variant:normal;font-weight:normal;font-stretch:normal;line-height:0%;font-family:'Bitstream Vera Sans';text-align:start;writing-mode:lr-tb;text-anchor:start;fill:#e6edf3;fill-opacity:1;stroke:none" x="77.983238" y="536.63623" id="text1900-9-ca" transform="scale(1.0265052,0.97417919)" systemLanguage="ca"><tspan sodipodi:role="line" id="tspan1902-4-ca" x="77.983238" y="536.63623" style="font-size:39.17284775px;line-height:1.25">+</tspan></text><text xml:space="preserve" style="font-style:normal;font-variant:normal;font-weight:normal;font-stretch:normal;line-height:0%;font-family:'Bitstream Vera Sans';text-align:start;writing-mode:lr-tb;text-anchor:start;fill:#e6edf3;fill-opacity:1;stroke:none" x="77.983238" y="536.63623" id="text1900-9" transform="scale(1.0265052,0.97417919)"><tspan sodipodi:role="line" id="tspan1902-4" x="77.983238" y="536.63623" style="font-size:39.17284775px;line-height:1.25">+</tspan></text></switch>
    <switch style="font-style:normal;font-variant:normal;font-weight:normal;font-stretch:normal;line-height:0%;font-family:'Bitstream Vera Sans';text-align:start;writing-mode:lr-tb;text-anchor:start;fill:#e6edf3;fill-opacity:1;stroke:none" id="switch95">
      
    <text xml:space="preserve" style="font-style:normal;font-variant:normal;font-weight:normal;font-stretch:normal;line-height:0%;font-family:'Bitstream Vera Sans';text-align:start;writing-mode:lr-tb;text-anchor:start;fill:#e6edf3;fill-opacity:1;stroke:none" x="77.029182" y="299.98123" id="text1900-9-8-ca" transform="scale(1.0265052,0.97417919)" systemLanguage="ca"><tspan sodipodi:role="line" id="tspan1902-4-8-ca" x="77.029182" y="299.98123" style="font-size:39.17284775px;line-height:1.25">+</tspan></text><text xml:space="preserve" style="font-style:normal;font-variant:normal;font-weight:normal;font-stretch:normal;line-height:0%;font-family:'Bitstream Vera Sans';text-align:start;writing-mode:lr-tb;text-anchor:start;fill:#e6edf3;fill-opacity:1;stroke:none" x="77.029182" y="299.98123" id="text1900-9-8" transform="scale(1.0265052,0.97417919)"><tspan sodipodi:role="line" id="tspan1902-4-8" x="77.029182" y="299.98123" style="font-size:39.17284775px;line-height:1.25">+</tspan></text></switch>
    <switch style="font-style:normal;font-variant:normal;font-weight:normal;font-stretch:normal;line-height:0%;font-family:'Bitstream Vera Sans';text-align:start;writing-mode:lr-tb;text-anchor:start;fill:#e6edf3;fill-opacity:1;stroke:none" id="switch99">
      
    <text xml:space="preserve" style="font-style:normal;font-variant:normal;font-weight:normal;font-stretch:normal;line-height:0%;font-family:'Bitstream Vera Sans';text-align:start;writing-mode:lr-tb;text-anchor:start;fill:#e6edf3;fill-opacity:1;stroke:none" x="230.34082" y="330.77902" id="text1948-1-ca" transform="scale(1.0265052,0.97417919)" systemLanguage="ca"><tspan sodipodi:role="line" id="tspan1950-7-ca" x="230.34082" y="330.77902" style="font-size:23.50370979px;line-height:1.25">(Androceu)</tspan></text><text xml:space="preserve" style="font-style:normal;font-variant:normal;font-weight:normal;font-stretch:normal;line-height:0%;font-family:'Bitstream Vera Sans';text-align:start;writing-mode:lr-tb;text-anchor:start;fill:#e6edf3;fill-opacity:1;stroke:none" x="230.34082" y="330.77902" id="text1948-1" transform="scale(1.0265052,0.97417919)"><tspan sodipodi:role="line" id="tspan1950-7" x="230.34082" y="330.77902" style="font-size:23.50370979px;line-height:1.25"> </tspan></text></switch>
    <path style="fill:#c8b7b7;fill-opacity:0.75;fill-rule:evenodd;stroke:#000000;stroke-width:1;stroke-linecap:butt;stroke-linejoin:miter;stroke-miterlimit:4;stroke-opacity:1;stroke-dasharray:none" d="m 340.71166,512.3197 c 48.5197,0 48.5197,0 48.5197,0 l 0,-5.45162 14.2959,8.17743 -14.2959,4.99733 0,-4.99733 -48.5197,0.4543 0,-3.18011 z" id="path1982-0" inkscape:connector-curvature="0"/>
    <path style="fill:#c8b7b7;fill-opacity:0.75;fill-rule:evenodd;stroke:#000000;stroke-width:1;stroke-linecap:butt;stroke-linejoin:miter;stroke-miterlimit:4;stroke-opacity:1;stroke-dasharray:none" d="m 183.56885,280.89113 c 48.51962,0 48.51962,0 48.51962,0 l 0,-5.45162 14.29594,8.17743 -14.29594,4.99733 0,-4.99733 -48.51962,0.4543 0,-3.18011 z" id="path1982-9" inkscape:connector-curvature="0"/>
    <path style="fill:#c8b7b7;fill-opacity:0.75;fill-rule:evenodd;stroke:#000000;stroke-width:1;stroke-linecap:butt;stroke-linejoin:miter;stroke-miterlimit:4;stroke-opacity:1;stroke-dasharray:none" d="m 98.225257,149.46255 c 107.533173,0 107.533173,0 107.533173,0 l 0,-5.45162 31.68386,8.17744 -31.68386,4.99732 0,-4.99732 -107.533173,0.4543 0,-3.18012 z" id="path1984-4" inkscape:connector-curvature="0"/>
    <path style="fill:#c8b7b7;fill-opacity:0.75;fill-rule:evenodd;stroke:#000000;stroke-width:1;stroke-linecap:butt;stroke-linejoin:miter;stroke-miterlimit:4;stroke-opacity:1;stroke-dasharray:none" d="m 373.93954,150.89112 c 107.53317,0 107.53317,0 107.53317,0 l 0,-5.45162 31.68386,8.17744 -31.68386,4.99732 0,-4.99732 -107.53317,0.4543 0,-3.18012 z" id="path1984-4-8" inkscape:connector-curvature="0"/>
    <path style="fill:#c8b7b7;fill-opacity:0.75;fill-rule:evenodd;stroke:#000000;stroke-width:1;stroke-linecap:butt;stroke-linejoin:miter;stroke-miterlimit:4;stroke-opacity:1;stroke-dasharray:none" d="m 350.71171,633.74826 c 48.51961,0 48.51961,0 48.51961,0 l 0,-5.45162 14.29594,8.17743 -14.29594,4.99733 0,-4.99733 -48.51961,0.4543 0,-3.18011 z" id="path1982-2" inkscape:connector-curvature="0"/>
    <path id="path875" style="display:inline;opacity:0.99900004;fill:#1d7843;fill-opacity:1;stroke:none;stroke-width:0.37795299;stroke-linecap:round" d="m 547.07929,571.76305 c -37.96305,2.85047 -49.63189,38.4712 -71.39303,45.22977 8.85535,1.95167 17.42833,4.35324 30.97515,-1.10624 15.87703,-4.41253 30.92185,-7.22108 44.04534,-6.30514 15.00875,1.99553 27.77748,13.90601 40.42073,32.08985 12.11606,17.42565 25.26011,29.53496 38.83935,32.99862 26.17734,6.6771 42.23808,-5.42353 43.55791,-31.85167 l 0.21537,-0.0595 1.6777,0.4638 c 1.31984,26.42815 17.37773,38.5319 43.55507,31.85482 13.57925,-3.46368 26.72331,-15.57298 38.83937,-32.99865 12.64322,-18.18384 25.41197,-30.0943 40.42071,-32.08984 13.1235,-0.91593 28.17114,1.8895 44.04818,6.30203 13.54682,5.45946 22.11696,3.06103 30.97231,1.10934 -21.76114,-6.75857 -33.42998,-42.3824 -71.39302,-45.23288 -38.09558,0.8095 -51.15483,14.27437 -65.81296,26.93164 l -61.08024,25.05762 -62.07497,-25.46191 c -14.65813,-12.6573 -27.71738,-26.12215 -65.81297,-26.93166 z" inkscape:connector-curvature="0"/>
    <path style="display:inline;opacity:0.99900004;fill:#e14129;fill-opacity:1;stroke:none;stroke-width:0.37795275;stroke-linecap:round;stroke-opacity:1" d="m 487.41204,380.76484 c 17.96199,-19.29228 16.80858,-33.74067 30.78004,-52.67543 6.56728,-8.55072 8.07191,-1.43312 39.20792,-20.25976 13.52265,-12.7156 11.31484,-23.46464 24.55076,-26.74289 16.16779,-4.00443 17.01775,5.4223 33.34505,8.5091 13.21728,-1.83072 20.13449,-7.83109 37.74219,-7.69872 7.88434,0.0594 9.23429,17.20702 9.89361,34.84681 l 23.81789,-0.40521 c 4.13338,-23.81454 0.60122,-27.84181 8.42786,-31.20005 13.06359,-5.60529 23.55079,3.05159 41.04008,4.45716 0,0 24.23698,-13.0638 31.87932,-10.5351 8.89881,2.94445 23.08505,27.95849 23.08505,27.95849 8.42786,8.12519 16.85574,10.84614 25.28361,12.56105 18.33143,3.56725 21.54232,17.42387 27.8486,29.17408 4.60514,13.99199 11.54335,22.82419 19.05432,30.38966 -13.06931,3.4813 -26.13861,-0.59544 -39.20791,-2.02597 -26.92892,-5.80357 -35.56011,9.81662 -46.5365,22.69093 l -3.29787,10.94028 c 90.92574,-14.53359 151.83236,23.38602 137.77736,67.26246 -6.49871,20.28746 -10.69698,28.71632 0.73287,52.27022 4.92692,10.15308 -5.20358,9.83717 -15.39002,12.96624 -23.04373,1.34979 -38.04567,-8.7337 -54.59796,-16.61301 -28.71516,-11.14556 -61.83389,-36.32304 -81.32885,8.60743 -5.71505,11.75783 -5.372,15.53869 -8.44629,23.40301 -3.13723,17.3568 -8.2299,28.94749 -14.29074,37.68318 -18.4831,26.20335 -39.33971,38.53365 -62.65938,36.46759 -23.59285,-2.73083 -43.25467,-3.62636 -63.75866,-35.25199 -9.42829,-14.12878 -14.02917,-32.26113 -19.78718,-49.43385 -9.11497,-30.3884 -17.74136,-36.14556 -28.92568,-38.61223 -16.31389,-3.59798 -31.00451,1.26262 -65.24662,21.59403 -18.76587,11.02348 -37.92493,17.69902 -58.62866,7.29352 -5.8207,-2.24725 2.04293,-15.4232 4.03072,-23.90653 3.91783,-16.92017 -1.53437,-28.90639 -7.69501,-40.51956 7.08619,-76.92062 110.75133,-68.72412 135.21235,-62.80529 l 4.03071,-2.43118 -5.86287,-8.9143 c -12.17544,-30.87293 -41.04103,-24.11565 -82.08011,-19.04417 z" id="path865" sodipodi:nodetypes="cccscsccscscccccccssccccccccscccccccc" inkscape:connector-curvature="0"/>
    <path style="display:inline;opacity:0.99900004;fill:#e0765c;fill-opacity:1;stroke:none;stroke-width:0.37795275;stroke-linecap:round" d="m 534.93402,264.09263 c -8.33964,1.75051 -34.91672,-29.57493 -22.83264,-36.15022 9.23219,-5.0235 17.83969,2.07821 24.40954,9.99368 7.78745,9.38245 12.34093,20.64672 6.4239,24.67481 28.11903,47.90114 31.74851,63.62481 34.72001,86.52797 1.67373,12.90036 0.64206,27.49989 2.2499,45.06237 0.74453,8.13253 4.86784,26.10872 4.86784,26.10872 7.15382,42.90019 36.45628,74.93193 36.45628,74.93193 l -1.08087,18.35743 C 577.74081,466.56509 566.37809,424.1455 567.03154,349.42539 562.63857,307.25721 547.66139,288.123 534.93402,264.09263 Z" id="path867" sodipodi:nodetypes="csscssscccc" inkscape:connector-curvature="0"/>
    <path style="display:inline;opacity:0.99900004;fill:#e0765c;fill-opacity:1;stroke:none;stroke-width:0.37795275;stroke-linecap:round" d="m 814.63744,265.06704 c 8.33964,1.75049 34.91672,-29.57494 22.83263,-36.15023 -9.23218,-5.02349 -17.83969,2.0782 -24.40953,9.99367 -7.78745,9.38245 -12.34094,20.64672 -6.42391,24.67481 -28.11902,47.90114 -31.7485,63.62481 -34.72,86.52797 -1.67373,12.90036 -0.64206,27.49989 -2.2499,45.06238 -0.74453,8.13253 -4.86784,26.10871 -4.86784,26.10871 -7.15382,42.90019 -36.45627,74.93194 -36.45627,74.93194 l 1.08087,18.35744 c 42.40715,-47.03424 53.76988,-89.45384 53.11643,-164.17395 4.39297,-42.16817 19.37014,-61.30239 32.09752,-85.33274 z" id="path869" sodipodi:nodetypes="csscssscccc" inkscape:connector-curvature="0"/>
    <path style="display:inline;opacity:0.99900004;fill:#e0765c;fill-opacity:1;stroke:none;stroke-width:0.37795275;stroke-linecap:round" d="m 594.75574,227.08286 c -18.26441,-7.92743 -23.42477,-30.77774 -13.73255,-39.53926 13.95899,-5.25661 25.69663,14.36341 26.68779,23.49433 -0.14293,5.76331 -2.83101,8.71219 -4.92299,12.32023 11.60556,25.69809 16.6386,50.17024 16.32358,73.63472 -0.35427,26.38484 -6.04152,51.41357 -6.99582,61.31451 -6.74418,69.97072 13.58058,80.43465 24.35582,105.43807 l -8.03224,12.89323 c -9.84598,-18.797 -20.91604,-28.52745 -26.42867,-73.06169 -3.61716,-29.22166 -0.77545,-56.36273 7.51405,-97.7021 1.82724,-24.32188 -2.0278,-54.3481 -14.76897,-78.79204 z" id="path871" sodipodi:nodetypes="ccccssccscc" inkscape:connector-curvature="0"/>
    <path style="display:inline;opacity:0.99900004;fill:#e0765c;fill-opacity:1;stroke:none;stroke-width:0.37795275;stroke-linecap:round" d="m 755.3006,227.08286 c 18.26441,-7.92743 23.42476,-30.77774 13.73253,-39.53926 -13.95897,-5.25661 -25.69662,14.36341 -26.68776,23.49433 0.14292,5.76331 2.83099,8.71219 4.92298,12.32023 -11.60556,25.69809 -16.63861,50.17024 -16.32357,73.63472 0.35425,26.38484 6.04151,51.41357 6.99582,61.31451 6.74417,69.97072 -13.5806,80.43465 -24.35582,105.43807 l 8.03222,12.89323 c 9.84598,-18.797 20.91604,-28.52745 26.42867,-73.06169 3.61716,-29.22166 0.77545,-56.36273 -7.51403,-97.7021 -1.82725,-24.32188 2.02778,-54.3481 14.76896,-78.79204 z" id="path873" sodipodi:nodetypes="ccccssccscc" inkscape:connector-curvature="0"/>
    <path id="path880" style="display:inline;opacity:0.99900004;fill:#faa74b;fill-opacity:1;stroke:none;stroke-width:0.37795299;stroke-linecap:round" d="m 667.888,146.21225 c -26.1153,3.22839 -22.44371,15.29106 -5.63675,22.70731 0,0 3.19329,1.13087 4.01857,2.57911 1.15476,2.02649 0.51576,7.1638 0.51576,7.1638 -1.56246,33.57445 -0.69715,47.97546 -0.25788,71.34036 0.9144,48.63611 -2.87511,82.57013 -5.69908,111.74411 -3.73527,37.1326 -9.46398,64.94692 -20.73039,89.67919 -16.48466,36.18748 -23.82854,40.58173 -20.6397,78.10931 5.8289,54.5943 30.0291,77.98389 51.90107,79.93005 l 0.0116,0.0345 c 23.51472,3.32958 52.98863,-18.73153 59.50458,-79.76081 3.18883,-37.5276 -4.15505,-41.92498 -20.6397,-78.11246 -11.26641,-24.73227 -16.99229,-52.54659 -20.72756,-89.67919 -2.82396,-29.17399 -6.61632,-63.10487 -5.70192,-111.74098 0.43927,-23.3649 1.30459,-37.76904 -0.25788,-71.34349 0,0 -0.63617,-5.13418 0.51861,-7.16067 0.82527,-1.44825 4.01572,-2.57909 4.01572,-2.57909 16.80696,-7.41625 20.47856,-19.47894 -5.63675,-22.70734 -4.78629,-0.61028 -10.47088,-0.35722 -14.55803,-0.20369 z" sodipodi:nodetypes="ccscscsccccscscsccc" inkscape:connector-curvature="0"/>
    <ellipse style="display:inline;opacity:0.99900004;fill:#f8931f;fill-opacity:1;stroke:none;stroke-width:0.37795275;stroke-linecap:round" id="path885" cx="675.02374" cy="522.17804" rx="37.742203" ry="58.753345"/>
  </g>
</svg>
