<?xml version="1.0" encoding="UTF-8" standalone="no"?>
<svg
xmlns="http://www.w3.org/2000/svg"
version="1.0"
width="1600" height="1600"
id="13-simplex_t0.svg">
<g style="stroke:#000000;stroke-width:8.0;stroke-opacity:0.90;">
<line x1="1560.000" y1="800.000" x2="1484.736" y2="1129.752"/>
<line x1="1560.000" y1="800.000" x2="1273.852" y2="1394.192"/>
<line x1="1560.000" y1="800.000" x2="969.116" y2="1540.945"/>
<line x1="1560.000" y1="800.000" x2="630.884" y2="1540.945"/>
<line x1="1560.000" y1="800.000" x2="326.148" y2="1394.192"/>
<line x1="1560.000" y1="800.000" x2="115.264" y2="1129.752"/>
<line x1="1560.000" y1="800.000" x2="40.000" y2="800.000"/>
<line x1="1560.000" y1="800.000" x2="115.264" y2="470.248"/>
<line x1="1560.000" y1="800.000" x2="326.148" y2="205.808"/>
<line x1="1560.000" y1="800.000" x2="630.884" y2="59.055"/>
<line x1="1560.000" y1="800.000" x2="969.116" y2="59.055"/>
<line x1="1560.000" y1="800.000" x2="1273.852" y2="205.808"/>
<line x1="1560.000" y1="800.000" x2="1484.736" y2="470.248"/>
<line x1="1484.736" y1="1129.752" x2="1273.852" y2="1394.192"/>
<line x1="1484.736" y1="1129.752" x2="969.116" y2="1540.945"/>
<line x1="1484.736" y1="1129.752" x2="630.884" y2="1540.945"/>
<line x1="1484.736" y1="1129.752" x2="326.148" y2="1394.192"/>
<line x1="1484.736" y1="1129.752" x2="115.264" y2="1129.752"/>
<line x1="1484.736" y1="1129.752" x2="40.000" y2="800.000"/>
<line x1="1484.736" y1="1129.752" x2="115.264" y2="470.248"/>
<line x1="1484.736" y1="1129.752" x2="326.148" y2="205.808"/>
<line x1="1484.736" y1="1129.752" x2="630.884" y2="59.055"/>
<line x1="1484.736" y1="1129.752" x2="969.116" y2="59.055"/>
<line x1="1484.736" y1="1129.752" x2="1273.852" y2="205.808"/>
<line x1="1484.736" y1="1129.752" x2="1484.736" y2="470.248"/>
<line x1="1273.852" y1="1394.192" x2="969.116" y2="1540.945"/>
<line x1="1273.852" y1="1394.192" x2="630.884" y2="1540.945"/>
<line x1="1273.852" y1="1394.192" x2="326.148" y2="1394.192"/>
<line x1="1273.852" y1="1394.192" x2="115.264" y2="1129.752"/>
<line x1="1273.852" y1="1394.192" x2="40.000" y2="800.000"/>
<line x1="1273.852" y1="1394.192" x2="115.264" y2="470.248"/>
<line x1="1273.852" y1="1394.192" x2="326.148" y2="205.808"/>
<line x1="1273.852" y1="1394.192" x2="630.884" y2="59.055"/>
<line x1="1273.852" y1="1394.192" x2="969.116" y2="59.055"/>
<line x1="1273.852" y1="1394.192" x2="1273.852" y2="205.808"/>
<line x1="1273.852" y1="1394.192" x2="1484.736" y2="470.248"/>
<line x1="969.116" y1="1540.945" x2="630.884" y2="1540.945"/>
<line x1="969.116" y1="1540.945" x2="326.148" y2="1394.192"/>
<line x1="969.116" y1="1540.945" x2="115.264" y2="1129.752"/>
<line x1="969.116" y1="1540.945" x2="40.000" y2="800.000"/>
<line x1="969.116" y1="1540.945" x2="115.264" y2="470.248"/>
<line x1="969.116" y1="1540.945" x2="326.148" y2="205.808"/>
<line x1="969.116" y1="1540.945" x2="630.884" y2="59.055"/>
<line x1="969.116" y1="1540.945" x2="969.116" y2="59.055"/>
<line x1="969.116" y1="1540.945" x2="1273.852" y2="205.808"/>
<line x1="969.116" y1="1540.945" x2="1484.736" y2="470.248"/>
<line x1="630.884" y1="1540.945" x2="326.148" y2="1394.192"/>
<line x1="630.884" y1="1540.945" x2="115.264" y2="1129.752"/>
<line x1="630.884" y1="1540.945" x2="40.000" y2="800.000"/>
<line x1="630.884" y1="1540.945" x2="115.264" y2="470.248"/>
<line x1="630.884" y1="1540.945" x2="326.148" y2="205.808"/>
<line x1="630.884" y1="1540.945" x2="630.884" y2="59.055"/>
<line x1="630.884" y1="1540.945" x2="969.116" y2="59.055"/>
<line x1="630.884" y1="1540.945" x2="1273.852" y2="205.808"/>
<line x1="630.884" y1="1540.945" x2="1484.736" y2="470.248"/>
<line x1="326.148" y1="1394.192" x2="115.264" y2="1129.752"/>
<line x1="326.148" y1="1394.192" x2="40.000" y2="800.000"/>
<line x1="326.148" y1="1394.192" x2="115.264" y2="470.248"/>
<line x1="326.148" y1="1394.192" x2="326.148" y2="205.808"/>
<line x1="326.148" y1="1394.192" x2="630.884" y2="59.055"/>
<line x1="326.148" y1="1394.192" x2="969.116" y2="59.055"/>
<line x1="326.148" y1="1394.192" x2="1273.852" y2="205.808"/>
<line x1="326.148" y1="1394.192" x2="1484.736" y2="470.248"/>
<line x1="115.264" y1="1129.752" x2="40.000" y2="800.000"/>
<line x1="115.264" y1="1129.752" x2="115.264" y2="470.248"/>
<line x1="115.264" y1="1129.752" x2="326.148" y2="205.808"/>
<line x1="115.264" y1="1129.752" x2="630.884" y2="59.055"/>
<line x1="115.264" y1="1129.752" x2="969.116" y2="59.055"/>
<line x1="115.264" y1="1129.752" x2="1273.852" y2="205.808"/>
<line x1="115.264" y1="1129.752" x2="1484.736" y2="470.248"/>
<line x1="40.000" y1="800.000" x2="115.264" y2="470.248"/>
<line x1="40.000" y1="800.000" x2="326.148" y2="205.808"/>
<line x1="40.000" y1="800.000" x2="630.884" y2="59.055"/>
<line x1="40.000" y1="800.000" x2="969.116" y2="59.055"/>
<line x1="40.000" y1="800.000" x2="1273.852" y2="205.808"/>
<line x1="40.000" y1="800.000" x2="1484.736" y2="470.248"/>
<line x1="115.264" y1="470.248" x2="326.148" y2="205.808"/>
<line x1="115.264" y1="470.248" x2="630.884" y2="59.055"/>
<line x1="115.264" y1="470.248" x2="969.116" y2="59.055"/>
<line x1="115.264" y1="470.248" x2="1273.852" y2="205.808"/>
<line x1="115.264" y1="470.248" x2="1484.736" y2="470.248"/>
<line x1="326.148" y1="205.808" x2="630.884" y2="59.055"/>
<line x1="326.148" y1="205.808" x2="969.116" y2="59.055"/>
<line x1="326.148" y1="205.808" x2="1273.852" y2="205.808"/>
<line x1="326.148" y1="205.808" x2="1484.736" y2="470.248"/>
<line x1="630.884" y1="59.055" x2="969.116" y2="59.055"/>
<line x1="630.884" y1="59.055" x2="1273.852" y2="205.808"/>
<line x1="630.884" y1="59.055" x2="1484.736" y2="470.248"/>
<line x1="969.116" y1="59.055" x2="1273.852" y2="205.808"/>
<line x1="969.116" y1="59.055" x2="1484.736" y2="470.248"/>
<line x1="1273.852" y1="205.808" x2="1484.736" y2="470.248"/>
</g>
<g style="stroke:#000000;stroke-width:4.0;fill:#ff0000">
<circle cx="1560.000" cy="800.000" r="32.0"/>
<circle cx="1484.736" cy="1129.752" r="32.0"/>
<circle cx="1273.852" cy="1394.192" r="32.0"/>
<circle cx="969.116" cy="1540.945" r="32.0"/>
<circle cx="630.884" cy="1540.945" r="32.0"/>
<circle cx="326.148" cy="1394.192" r="32.0"/>
<circle cx="115.264" cy="1129.752" r="32.0"/>
<circle cx="40.000" cy="800.000" r="32.0"/>
<circle cx="115.264" cy="470.248" r="32.0"/>
<circle cx="326.148" cy="205.808" r="32.0"/>
<circle cx="630.884" cy="59.055" r="32.0"/>
<circle cx="969.116" cy="59.055" r="32.0"/>
<circle cx="1273.852" cy="205.808" r="32.0"/>
<circle cx="1484.736" cy="470.248" r="32.0"/>
</g>
</svg>
